<svg xmlns="http://www.w3.org/2000/svg" xmlns:xlink="http://www.w3.org/1999/xlink" version="1.1" id="Layer_2" x="0px" y="0px" viewBox="0 0 1080 1080" style="enable-background:new 0 0 1080 1080;" xml:space="preserve">
<style type="text/css">
	.st0{fill:#F7F7F7;}
	.st1{fill:none;stroke:#F7F7F7;stroke-width:3;stroke-miterlimit:10;}
	.st2{fill:#F2F2F2;}
	.st3{fill:#B6E7FF;}
	.st4{fill:#85DDFF;}
	.st5{fill:#2A94F4;}
	.st6{fill:#41AAF7;}
	.st7{fill:#CCE9FF;}
	.st8{fill:#FCD2B1;}
	.st9{fill:#0E538C;}
	.st10{fill:#072735;}
	.st11{fill:#0A3B56;}
	.st12{fill:#0B4870;}
	.st13{fill:#FFE3CA;}
	.st14{fill:#FFBE55;}
	.st15{fill:#1B75B2;}
	.st16{fill:#FFFFFF;stroke:#CCE9FF;stroke-miterlimit:10;}
	.st17{fill:#D3D3D3;}
	.st18{fill:#FFFFFF;}
</style>
<g>
	<path class="st0" d="M209.76,361.21c3.19,10.94,7.62,21.49,13.22,31.39l-15.96,20.12c-5.21,6.58-4.62,15.96,1.24,21.88l27.48,27.48   c5.93,5.93,15.3,6.45,21.88,1.24l19.99-15.83c10.29,5.93,21.23,10.55,32.63,13.81l3,25.72c0.98,8.34,8.01,14.59,16.35,14.59h38.88   c8.34,0,15.37-6.25,16.35-14.59l2.87-24.81c12.24-3.19,23.97-7.95,34.97-14.13l19.34,15.3c6.58,5.21,15.96,4.62,21.88-1.24   l27.48-27.48c5.93-5.93,6.45-15.3,1.24-21.88l-15.04-19.08c6.25-10.81,11.14-22.34,14.39-34.39l23.18-2.67   c8.34-0.98,14.59-8.01,14.59-16.35v-38.88c0-8.34-6.25-15.37-14.59-16.35l-22.86-2.67c-3.13-11.92-7.81-23.31-13.81-33.99   l14.07-17.78c5.21-6.58,4.62-15.96-1.24-21.88l-27.42-27.42c-5.93-5.93-15.3-6.45-21.88-1.24l-17.26,13.68   c-11.2-6.58-23.18-11.59-35.75-14.98l-2.6-22.34c-0.98-8.34-8.01-14.59-16.35-14.59h-38.88c-8.34,0-15.37,6.25-16.35,14.59   l-2.6,22.34c-12.89,3.45-25.2,8.66-36.66,15.5l-17.91-14.2c-6.58-5.21-15.96-4.62-21.88,1.24l-27.48,27.48   c-5.93,5.93-6.45,15.3-1.24,21.88l14.98,18.95c-5.99,10.81-10.55,22.34-13.55,34.32l-23.97,2.74c-8.34,0.98-14.59,8.01-14.59,16.35   v38.88c0,8.34,6.25,15.37,14.59,16.35L209.76,361.21z M350.62,256.03c35.43,0,64.28,28.85,64.28,64.28s-28.85,64.28-64.28,64.28   c-35.43,0-64.28-28.85-64.28-64.28S315.2,256.03,350.62,256.03z"/>
	<path class="st0" d="M734.98,370.78l-20.51-17.32c-6.32-5.34-15.63-5.08-21.62,0.59l-11.33,10.62c-9.57-4.62-19.73-7.88-30.22-9.77   l-3.19-15.63c-1.63-8.08-9.12-13.68-17.32-13.02l-26.77,2.28c-8.21,0.72-14.65,7.42-14.91,15.69l-0.52,15.89   c-10.29,3.71-19.99,8.79-28.85,15.17l-13.55-8.99c-6.9-4.56-16.09-3.26-21.43,3.06l-17.32,20.64c-5.34,6.32-5.08,15.63,0.58,21.62   l11.85,12.63c-4.1,9.25-7.03,18.95-8.73,28.91l-16.93,3.45c-8.08,1.63-13.68,9.12-13.02,17.32l2.28,26.77   c0.72,8.21,7.42,14.65,15.69,14.91l18.3,0.59c3.32,8.73,7.69,17,12.96,24.75l-10.22,15.43c-4.56,6.9-3.26,16.09,3.06,21.43   l20.51,17.32c6.32,5.34,15.63,5.08,21.62-0.59l13.42-12.57c8.79,4.1,18.04,7.16,27.55,8.99l3.71,18.36   c1.63,8.08,9.12,13.68,17.32,13.02l26.77-2.28c8.21-0.72,14.65-7.42,14.91-15.69l0.59-17.97c9.77-3.45,19.02-8.14,27.55-13.94   l14.78,9.77c6.9,4.56,16.08,3.26,21.43-3.06l17.32-20.51c5.34-6.32,5.08-15.63-0.59-21.62l-11.92-12.63   c4.36-9.25,7.56-19.02,9.38-29.05l16.28-3.32c8.08-1.63,13.68-9.12,13.02-17.32l-2.28-26.77c-0.72-8.21-7.42-14.65-15.69-14.91   l-16.35-0.52c-3.39-9.51-7.95-18.49-13.61-26.83l8.92-13.42C742.6,385.37,741.3,376.12,734.98,370.78z M634.11,525.52   c-28.91,2.48-54.44-19.08-56.85-48c-2.48-28.91,19.08-54.44,48-56.85c28.91-2.47,54.44,19.08,56.85,48   C684.58,497.58,663.02,523.11,634.11,525.52z"/>
	<path class="st1" d="M303.41,597.54c-8.21,0.85-14.52,7.75-14.59,16.02l-0.2,16.48c-0.13,8.27,5.99,15.3,14.2,16.35l12.11,1.56   c2.02,7.36,4.88,14.39,8.6,21.04l-7.81,9.64c-5.21,6.45-4.82,15.69,0.98,21.62l11.53,11.79c5.8,5.93,15.04,6.58,21.62,1.5l9.7-7.49   c6.84,4.04,14.07,7.23,21.62,9.44l1.3,12.5c0.85,8.21,7.75,14.52,16.02,14.59l16.48,0.2c8.27,0.13,15.3-5.99,16.35-14.2l1.5-11.85   c8.21-2.02,16.02-5.08,23.44-9.12l9.12,7.36c6.45,5.21,15.7,4.82,21.62-0.98l11.79-11.53c5.93-5.8,6.58-15.04,1.5-21.62l-6.97-9.05   c4.3-7.16,7.62-14.78,9.9-22.79l10.81-1.11c8.21-0.85,14.52-7.75,14.59-16.02l0.19-16.48c0.13-8.27-5.99-15.3-14.2-16.35   l-10.55-1.37c-2.02-7.95-5.01-15.63-8.92-22.79l6.58-8.08c5.21-6.45,4.82-15.69-0.98-21.62l-11.53-11.79   c-5.8-5.93-15.04-6.58-21.62-1.5l-7.88,6.06c-7.42-4.49-15.37-7.95-23.7-10.29l-1.04-10.22c-0.85-8.21-7.75-14.52-16.02-14.59   l-16.48-0.2c-8.27-0.13-15.3,5.99-16.35,14.2l-1.3,10.16c-8.6,2.21-16.87,5.6-24.55,10.03l-8.14-6.64   c-6.45-5.21-15.7-4.82-21.62,0.98l-11.85,11.59c-5.93,5.8-6.58,15.04-1.5,21.62l6.97,8.99c-4.04,7.16-7.23,14.78-9.31,22.79   L303.41,597.54z M409.76,578.92c23.64,0.26,42.59,19.73,42.33,43.37c-0.26,23.64-19.73,42.59-43.37,42.33   c-23.64-0.26-42.59-19.73-42.33-43.37C366.65,597.61,386.12,578.66,409.76,578.92z"/>
</g>
<path class="st2" d="M1025.71,987.16H54.29c-6.59,0-11.99-5.39-11.99-11.99v-63.45c0-6.59,5.39-11.99,11.99-11.99h971.42  c6.59,0,11.99,5.39,11.99,11.99v63.45C1037.7,981.77,1032.31,987.16,1025.71,987.16z"/>
<g>
	<path class="st3" d="M163.85,935.18c23.16,0,32.94-18.5,36.79-38.12c4.34-22.14,1.16-45.7,1.16-45.7H125.9c0,0-0.12,0.9-0.28,2.5   C124.2,867.79,119.64,935.18,163.85,935.18z"/>
	<path class="st4" d="M125.9,851.36c0,1.66,16.99,3,37.94,3c20.96,0,37.95-1.34,37.95-3c0-1.66-16.99-3-37.95-3   C142.89,848.36,125.9,849.7,125.9,851.36z"/>
	<path class="st5" d="M61.1,640.98c0,0,40.02,60.88,64.03,98.04s30.3,44.88,33.16,56.88c2.86,12.01,5.43,56.31,5.43,56.31h1.77   c0,0-0.62-37.6-2.78-50.26c-2.09-12.23,0.15-16.63,1.86-29.49c1.72-12.86,4-33.44-9-47.74c-13.01-14.29-9.58-28.3-14.15-37.73   c-4.57-9.43-40.02-20.87-44.59-30.58C92.25,646.7,72.24,640.7,61.1,640.98z"/>
	<path class="st6" d="M61.1,640.98c0,0,12.58,14.29,21.15,19.15c8.58,4.86,12.58,0.57,19.15,12.29   c6.57,11.72,6.83,16.86,12.85,22.87c6.02,6,13.16,6.29,13.74,19.44c0.57,13.15-2.86,24.3-2.86,24.3S63.67,644.13,61.1,640.98z"/>
	<path class="st5" d="M160.54,852.22h-1.79c0,0-0.54-12.17-5.37-18.08c-3.12-3.81-16.36-8.14-29.46-13.33   c-7.21-2.86-14.38-5.97-19.78-9.41c-15.22-9.67-29.73-40.83-30.97-46.38c-0.44-1.93-0.63-3.11-0.62-3.91v-0.02   c0.03-1.49,0.77-1.72,2.05-3.22c0.61-0.73,2.47-0.48,4.73,0.21c6.57,2,12.1,6.5,15.54,12.44c3.17,5.5,8.25,12.37,14.47,14.03   c10.74,2.87,9.85,4.65,13.82,15.58c3.95,10.93,13.95,12.71,26.47,25.6C162.16,838.61,160.54,852.22,160.54,852.22z"/>
	<path class="st6" d="M123.92,820.8c-7.21-2.86-14.38-5.97-19.78-9.41c-15.22-9.67-29.73-40.83-30.97-46.38   c-0.44-1.93-0.63-3.11-0.62-3.91c0.04,0.37,0.75,5.3,8.68,8.57c8.23,3.39,9.84,3.39,10.92,8.59c1.07,5.19,1.98,10.74,6.27,11.82   c4.3,1.07,6.98-3.76,10.38,4.11c3.41,7.88,5.03,10.56,8.15,11.64c3.13,1.07,5.5-0.54,6.2,5.55   C123.56,815.11,123.8,818.63,123.92,820.8z"/>
	<path class="st5" d="M173.7,852.22h2.13c0,0,4.15-75.37,9.88-82.37c3.69-4.52,15.87-12.61,31.38-18.76   c8.54-3.38,17.03-7.08,23.43-11.15c18.03-11.45,35.21-48.36,36.69-54.93c0.52-2.29,0.75-3.68,0.74-4.63v-0.03   c-0.04-1.77-0.92-2.04-2.43-3.82c-0.73-0.86-2.93-0.57-5.61,0.25c-7.78,2.37-14.34,7.69-18.4,14.73   c-3.76,6.51-9.77,14.65-17.13,16.61c-12.72,3.4-11.67,5.51-16.36,18.45c-4.68,12.94-16.52,15.05-31.35,30.32   C171.79,772.17,173.7,852.22,173.7,852.22z"/>
	<path class="st6" d="M217.08,751.09c8.54-3.38,17.03-7.08,23.43-11.15c18.03-11.45,35.21-48.36,36.69-54.93   c0.52-2.29,0.75-3.68,0.74-4.63c-0.05,0.43-0.89,6.27-10.28,10.16c-9.75,4.02-11.66,4.02-12.93,10.18   c-1.27,6.15-2.34,12.73-7.43,14c-5.09,1.27-8.27-4.45-12.29,4.87c-4.03,9.33-5.95,12.51-9.66,13.78c-3.7,1.27-6.52-0.64-7.34,6.58   C217.5,744.34,217.22,748.52,217.08,751.09z"/>
	<g>
		<path class="st7" d="M163.85,935.18c23.16,0,32.94-18.5,36.79-38.12c-22.7-8.61-51.29-22.41-75.01-43.2    C124.2,867.79,119.64,935.18,163.85,935.18z"/>
	</g>
</g>
<g>
	<path class="st3" d="M964.79,935.18c14.58,0,20.74-11.65,23.16-24c2.74-13.94,0.73-28.77,0.73-28.77H940.9c0,0-0.07,0.56-0.18,1.58   C939.83,892.76,936.96,935.18,964.79,935.18z"/>
	<path class="st4" d="M940.9,882.41c0,1.04,10.7,1.89,23.89,1.89c13.19,0,23.89-0.85,23.89-1.89c0-1.04-10.7-1.89-23.89-1.89   C951.6,880.52,940.9,881.37,940.9,882.41z"/>
	<path class="st5" d="M917.49,792.44c0,0,17.15,26.09,27.44,42.01s12.98,19.23,14.21,24.37c1.23,5.14,2.33,24.13,2.33,24.13h0.76   c0,0-0.26-16.11-1.19-21.54c-0.9-5.24,0.06-7.12,0.8-12.64c0.73-5.51,1.71-14.33-3.86-20.45c-5.57-6.12-4.1-12.13-6.06-16.17   c-1.96-4.04-17.15-8.94-19.11-13.11C930.84,794.89,922.27,792.31,917.49,792.44z"/>
	<path class="st6" d="M917.49,792.44c0,0,5.39,6.12,9.06,8.21c3.67,2.08,5.39,0.24,8.21,5.27c2.82,5.02,2.93,7.23,5.5,9.8   c2.58,2.57,5.64,2.69,5.89,8.33c0.24,5.63-1.22,10.41-1.22,10.41S918.59,793.78,917.49,792.44z"/>
	<path class="st5" d="M967.53,882.95h1.61c0,0,3.15-57.14,7.49-62.44c2.8-3.42,12.03-9.56,23.78-14.22   c6.47-2.57,12.91-5.36,17.76-8.45c13.67-8.68,26.69-36.65,27.81-41.64c0.4-1.74,0.57-2.79,0.56-3.51v-0.02   c-0.03-1.34-0.69-1.54-1.84-2.89c-0.55-0.65-2.22-0.43-4.25,0.19c-5.89,1.8-10.87,5.83-13.95,11.17   c-2.85,4.93-7.41,11.1-12.99,12.59c-9.65,2.58-8.85,4.18-12.4,13.99c-3.55,9.81-12.52,11.41-23.77,22.99   C966.08,822.27,967.53,882.95,967.53,882.95z"/>
	<path class="st6" d="M1000.41,806.29c6.47-2.57,12.91-5.36,17.76-8.45c13.67-8.68,26.69-36.65,27.81-41.64   c0.4-1.74,0.57-2.79,0.56-3.51c-0.04,0.33-0.67,4.76-7.79,7.7c-7.39,3.05-8.84,3.05-9.8,7.72c-0.96,4.66-1.77,9.65-5.63,10.61   c-3.86,0.96-6.27-3.38-9.32,3.69c-3.06,7.07-4.51,9.48-7.32,10.45c-2.81,0.96-4.94-0.48-5.57,4.99   C1000.73,801.18,1000.52,804.34,1000.41,806.29z"/>
	<g>
		<path class="st7" d="M964.79,935.18c14.58,0,20.74-11.65,23.16-24c-14.29-5.42-32.29-14.11-47.23-27.2    C939.83,892.76,936.96,935.18,964.79,935.18z"/>
	</g>
</g>
<g>
	<path class="st8" d="M768.78,272.68l6.08-14.48c0,0-7.17-10.43-11.71-12.57c-4.55-2.14-14.43,2.6-14.43,2.6l-3.15,5.96l2.4,8.73   l13.37,21.97l10.96-5.53L768.78,272.68z"/>
	<path class="st9" d="M860.73,414.17c-31.39-20.09-75.09-54.27-85.3-139.97c-7.81-0.6-19.82,0-19.82,0s9.42,122.84,81.6,162.25   c7.55,4.12,18.8,42.76,27.79,44.83C867.36,473.13,860.73,414.17,860.73,414.17z"/>
	<path class="st10" d="M891.57,906.18l-49.01,46.27l18.08,2.85c4.97,0.79,10.07,0.04,14.61-2.14l28.5-13.7v-37.02L891.57,906.18z"/>
	<path class="st10" d="M827.01,911.2l-23.14,7.07c-9.17,2.8-17.53,7.77-24.37,14.49l0,0h72.84l-3.42-30.3L827.01,911.2z"/>
	<path class="st11" d="M852.34,618.6c0,0-46.56,126.62-50.65,135.84c-4.1,9.23,25.33,156.76,25.33,156.76h25.1l-17.38-145.57   l61.81-104.41l-9.41-49.18L852.34,618.6z"/>
	<polygon class="st12" points="852.34,584.65 881.4,914.4 909.05,914.4 909.87,575.07  "/>
	<polygon class="st0" points="845.99,440.4 842.57,453.29 842.57,568.57 910.46,566.9 888.45,423.9 876.38,415.43 853.77,427.69     "/>
	<path class="st9" d="M852.34,437.96l-9.77,68.24l-3.6,126.57h82.9c0,0-17.52-203.26-31.52-211.47c-12.98-4.75-23.6-6.1-35.03,4.98   C855.11,430.37,852.34,437.96,852.34,437.96z"/>
	<path class="st8" d="M852.34,393.96c0,0.65,2.16,23.26,2.16,23.26h16.59l7.12-11.63l-21.38-12.94L852.34,393.96z"/>
	<path class="st13" d="M858.32,342.58c-0.99,1.48-20.22,32.54-14.79,50.3c8.88,6.9,21.2,11.83,21.2,11.83s11.83-3.45,19.72-19.72   C892.34,368.71,890.87,344.55,858.32,342.58z"/>
	<path class="st12" d="M912.4,367.92c3.19,6.82-13.17,43.06-39.06,45.62c-6.26-4.19-7.84-8.83-7.84-8.83l-4.05-44.55l49.21,1.1   L912.4,367.92z"/>
	<path class="st12" d="M861.46,360.16c-6.37-12.06-11.81-25.01,0-37.16c9.73,4.86,63.21,27.44,50.36,45.85   C906.96,373.64,861.46,360.16,861.46,360.16z"/>
	<path class="st12" d="M861.46,354.01c0.07,0.52-4.63,15.87-4.63,15.87l2.31,1.17l11.94-12.17L861.46,354.01z"/>
	
		<ellipse transform="matrix(0.5986 -0.801 0.801 0.5986 47.2084 841.5471)" class="st13" cx="863.36" cy="373.67" rx="9.56" ry="4.94"/>
	<path class="st2" d="M884.15,413.54c-12.12-0.94-28.71-1.8-36.21,10.02c-1.73,7.79-2.02,18.75-2.02,18.75s12.89-26.25,41.21-22.79   c2.07-2.6,3.22-4.62,3.22-4.62L884.15,413.54z"/>
	<g>
		
			<rect x="778.03" y="549.48" transform="matrix(0.9612 0.2757 -0.2757 0.9612 187.5148 -206.741)" class="st7" width="101.9" height="28.01"/>
		<polygon class="st14" points="822.69,551.39 822.52,546.06 774.15,532.19 772.75,537.06 770.12,546.23 752.07,609.17     862.94,640.97 883.62,568.86   "/>
	</g>
	<path class="st8" d="M798.14,601.38c0,0-9.16,14.76-13.68,20.16c-1.09,1.31-2.87,1.82-4.49,1.29c-6.43-2.09-21.07-9.54-21.07-9.54   l32.07-20.15L798.14,601.38z"/>
	<path class="st15" d="M898.46,463.16c4.9-21.83-21.13-45.57-32.96-32.07c-25.98,29.63-16.09,124.08-85.52,163.92   c4.23,4.23,14.25,15.14,14.25,15.14S840.03,597.24,898.46,463.16z"/>
	<polygon class="st9" points="783.05,257.16 782.1,261.69 742.1,252.11 737.36,248.95 743.36,248.95  "/>
</g>
<g>
	<polygon class="st16" points="737.72,257.72 706.21,264.87 712.98,272.5 572.06,396.44 490.36,361.47 436.9,421.3 359.23,390.74    295.99,466.64 228.87,432.81 98.63,573.22 107.72,581.65 231.62,448.08 299.2,482.14 363.03,405.56 440.39,435.99 493.67,376.37    574.37,410.91 721.19,281.79 726.38,287.59  "/>
	<polygon class="st7" points="737.32,249.04 705.81,256.19 712.58,263.82 571.66,387.75 489.96,352.79 436.5,412.61 358.83,382.06    295.59,457.96 228.47,424.12 98.23,564.54 107.32,572.97 231.22,439.39 298.8,473.46 362.63,396.87 439.99,427.31 493.27,367.69    573.97,402.23 720.79,273.1 725.97,278.91  "/>
</g>
<g>
	<path class="st17" d="M957.54,330.83c0,0.8-0.3,1.53-0.8,2.08c0.5,0.55,0.8,1.28,0.8,2.08v2.6c0,0.57-0.15,1.1-0.42,1.56   c0.27,0.46,0.42,0.99,0.42,1.56v2.6c0,1.72-1.4,3.12-3.12,3.12h-27.05c-1.72,0-3.12-1.4-3.12-3.12v-2.6c0-0.57,0.15-1.1,0.42-1.56   c-0.27-0.46-0.42-0.99-0.42-1.56v-2.6c0-0.8,0.3-1.53,0.8-2.08c-0.5-0.55-0.8-1.28-0.8-2.08v-2.6c0-1.72,1.4-3.12,3.12-3.12h27.05   c1.72,0,3.12,1.4,3.12,3.12V330.83z"/>
	<path class="st14" d="M979.13,271.93c0,15.15-8.81,28.24-21.59,34.43v14.1c0,1.06-0.87,1.92-1.92,1.92h-29.44   c-1.06,0-1.92-0.87-1.92-1.92v-14.1c-12.78-6.19-21.59-19.28-21.59-34.43c0-21.12,17.12-38.23,38.23-38.23   S979.13,250.82,979.13,271.93z"/>
	<g>
		<path class="st0" d="M953.92,333.79H928.3c-0.36,0-0.66-0.29-0.66-0.66c0-0.36,0.29-0.66,0.66-0.66h25.63    c0.36,0,0.66,0.29,0.66,0.66C954.58,333.5,954.29,333.79,953.92,333.79z"/>
	</g>
	<g>
		<path class="st0" d="M953.92,339.67H928.3c-0.36,0-0.66-0.29-0.66-0.66c0-0.36,0.29-0.66,0.66-0.66h25.63    c0.36,0,0.66,0.29,0.66,0.66C954.58,339.38,954.29,339.67,953.92,339.67z"/>
	</g>
	<g>
		<path class="st18" d="M947.45,276.64c-0.48-0.43-1.13-0.63-1.84-0.56c-0.87,0.09-1.74,0.58-2.26,1.29    c-0.47,0.63-0.72,1.38-0.86,2.1c-0.39-0.2-0.79-0.42-1.18-0.66l-0.15-0.09h-0.53l-0.15,0.09c-0.4,0.24-0.79,0.46-1.18,0.66    c-0.14-0.72-0.39-1.47-0.86-2.1c-0.52-0.71-1.39-1.2-2.26-1.29c-0.7-0.07-1.35,0.13-1.84,0.56c-0.63,0.57-0.86,1.42-0.61,2.33    c0.32,1.16,1.32,2.13,2.43,2.36c0.71,0.14,1.4,0.09,2.08-0.09v0.02c1.06,13.63,1.45,27.46,1.16,41.13h1.26    c0.28-13.7-0.11-27.57-1.17-41.23c-0.01-0.12-0.02-0.24-0.03-0.37c0.48-0.22,0.96-0.48,1.42-0.75c0.47,0.27,0.94,0.53,1.42,0.75    c-0.01,0.13-0.02,0.25-0.03,0.37c-1.06,13.66-1.45,27.52-1.17,41.23h1.26c-0.2-13.64,0.49-27.35,1.16-41.13v-0.02    c0.68,0.18,1.37,0.24,2.08,0.09c1.11-0.23,2.11-1.19,2.43-2.36C948.31,278.06,948.09,277.22,947.45,276.64z M936.41,280.09    c-0.64-0.13-1.27-0.76-1.46-1.45c-0.08-0.31-0.11-0.74,0.24-1.06c0.22-0.2,0.49-0.25,0.72-0.25c0.05,0,0.1,0,0.15,0.01    c0.52,0.05,1.06,0.36,1.37,0.78c0.38,0.51,0.57,1.14,0.68,1.85C937.54,280.14,936.97,280.21,936.41,280.09z M946.84,278.64    c-0.19,0.7-0.82,1.32-1.46,1.45c-0.56,0.11-1.13,0.05-1.7-0.13c0.11-0.71,0.3-1.34,0.68-1.85c0.31-0.42,0.85-0.73,1.37-0.78    c0.25-0.03,0.6,0,0.87,0.24C946.96,277.9,946.93,278.33,946.84,278.64z"/>
	</g>
	<g>
		<path class="st18" d="M906.45,276.98c-0.51,0-0.95-0.4-0.98-0.92c-1.26-19.82,13.51-32.55,23.75-36.28    c0.51-0.19,1.08,0.08,1.26,0.59c0.19,0.51-0.08,1.08-0.59,1.26c-9.68,3.52-23.66,15.56-22.46,34.3c0.03,0.54-0.38,1.01-0.92,1.05    C906.49,276.98,906.47,276.98,906.45,276.98z"/>
	</g>
</g>
</svg>