<svg xmlns="http://www.w3.org/2000/svg" xmlns:xlink="http://www.w3.org/1999/xlink" viewBox="0 0 2871.58 3197.87"><defs><style>.cls-1{fill:none;}.cls-2{isolation:isolate;}.cls-3{fill:#2a94f4;}.cls-12,.cls-4{fill:#0b4870;}.cls-5{clip-path:url(#clip-path);}.cls-6{fill:#ffbe55;}.cls-7,.cls-8{fill:#0e538c;}.cls-7{mix-blend-mode:lighten;}.cls-11,.cls-9{fill:#f2f2f2;}.cls-10{fill:#fff;}.cls-11,.cls-12{opacity:0.15;}</style><clipPath id="clip-path" transform="translate(254.24 -62.37)"><path class="cls-1" d="M1591.45,1600.45c-44.43,42.65-319.52,298.22-708.27,257.09-253.86-26.87-561.29-188-628.76-417.12-46-156.13,90.49-235,127-540C408.73,672.2,322.58,636.3,368,508.12c76.51-216,374.87-376,645.28-337.62,280.41,39.77,438.62,279.7,451.19,299.42,92.26,144.68,54.28,226.58,181.71,418.14,94.49,142,150.16,149.31,173.45,235.4C1844.83,1216.65,1822,1364.89,1591.45,1600.45Z"/></clipPath></defs><title>To_the_moon_July312019</title><g class="cls-2"><g id="Layer_1" data-name="Layer 1"><path class="cls-3" d="M2432.05,3174.85l-6.28,3.86C2427.52,3177.7,2429.68,3176.36,2432.05,3174.85Z" transform="translate(254.24 -62.37)"/><path class="cls-3" d="M2330.3,3233.24c-8.55,4.29-17.4,8.74-26.44,13.19C2312.9,3242.11,2321.76,3237.79,2330.3,3233.24Z" transform="translate(254.24 -62.37)"/><path class="cls-3" d="M2352.56,3221.16l-22.26,12.08C2337.09,3229.77,2344.77,3225.53,2352.56,3221.16Z" transform="translate(254.24 -62.37)"/><path class="cls-3" d="M2425.77,3178.71c-5.78,3.28-10.55,6.29-15.21,9.27C2415.7,3184.83,2420.77,3181.72,2425.77,3178.71Z" transform="translate(254.24 -62.37)"/><path class="cls-3" d="M2410.56,3188c-7.38,4.53-14.93,9.15-22.71,13.74C2397.09,3196.68,2403.71,3192.36,2410.56,3188Z" transform="translate(254.24 -62.37)"/><path class="cls-3" d="M2612.92,3031.08l-38.88,31c-6.4,5-13.3,10.89-21.33,16.74l-26.37,18.93c-9.55,6.77-19.63,14.27-30.69,21.85L2467,3138.07c-6.33,4.08-6.32,18.5-13,22.8-5.2,3-14.6,9.3-22,14l14.69-9,19.36-13.17,35.65-24.26c11-7.93,21-15.78,30.45-22.86l26.12-19.78c7.93-6.09,14.65-12.14,20.93-17.29l38.09-32Z" transform="translate(254.24 -62.37)"/><path class="cls-3" d="M2352.56,3221.16l28.06-15.21q3.65-2.11,7.23-4.23l-.64.36C2377.33,3207.12,2364.8,3214.3,2352.56,3221.16Z" transform="translate(254.24 -62.37)"/><path class="cls-3" d="M2303.86,3246.43c-9.46,4.51-19.13,9-28.87,13.81C2284.72,3255.76,2294.39,3251.09,2303.86,3246.43Z" transform="translate(254.24 -62.37)"/><path class="cls-4" d="M1591.45,1600.45c-44.43,42.65-319.52,298.22-708.27,257.09-253.86-26.87-561.29-188-628.76-417.12-46-156.13,90.49-235,127-540C408.73,672.2,322.58,636.3,368,508.12c76.51-216,374.87-376,645.28-337.62,280.41,39.77,438.62,279.7,451.19,299.42,92.26,144.68,54.28,226.58,181.71,418.14,94.49,142,150.16,149.31,173.45,235.4C1844.83,1216.65,1822,1364.89,1591.45,1600.45Z" transform="translate(254.24 -62.37)"/><g class="cls-5"><path class="cls-6" d="M682.19,1327.4a10.71,10.71,0,1,1-10.71-10.71A10.71,10.71,0,0,1,682.19,1327.4Z" transform="translate(254.24 -62.37)"/><path class="cls-6" d="M1247.27,1913.8a10.71,10.71,0,1,1-10.7-10.7A10.71,10.71,0,0,1,1247.27,1913.8Z" transform="translate(254.24 -62.37)"/><path class="cls-6" d="M576.12,362.81a10.71,10.71,0,1,1-10.7-10.7A10.7,10.7,0,0,1,576.12,362.81Z" transform="translate(254.24 -62.37)"/><path class="cls-6" d="M1346.8,1579.7a10.7,10.7,0,1,1-10.7-10.7A10.7,10.7,0,0,1,1346.8,1579.7Z" transform="translate(254.24 -62.37)"/><path class="cls-6" d="M1159.48,808.85a10.71,10.71,0,1,1-10.7-10.7A10.7,10.7,0,0,1,1159.48,808.85Z" transform="translate(254.24 -62.37)"/><path class="cls-6" d="M1341.84,528.29a10.7,10.7,0,1,1-10.7-10.7A10.7,10.7,0,0,1,1341.84,528.29Z" transform="translate(254.24 -62.37)"/><path class="cls-6" d="M547.13,1467a10.71,10.71,0,1,1-10.7-10.71A10.7,10.7,0,0,1,547.13,1467Z" transform="translate(254.24 -62.37)"/><path class="cls-6" d="M495.92,1296.31a2.2,2.2,0,1,1-2.2-2.2A2.19,2.19,0,0,1,495.92,1296.31Z" transform="translate(254.24 -62.37)"/><path class="cls-6" d="M514.61,756.54a2.2,2.2,0,1,1-2.2-2.19A2.2,2.2,0,0,1,514.61,756.54Z" transform="translate(254.24 -62.37)"/><path class="cls-6" d="M956.54,372.88a2.2,2.2,0,1,1-2.2-2.19A2.21,2.21,0,0,1,956.54,372.88Z" transform="translate(254.24 -62.37)"/><path class="cls-6" d="M1082.37,831.71a2.2,2.2,0,1,1-2.19-2.2A2.2,2.2,0,0,1,1082.37,831.71Z" transform="translate(254.24 -62.37)"/><path class="cls-6" d="M1084.57,1964.8a2.2,2.2,0,1,1-2.2-2.19A2.19,2.19,0,0,1,1084.57,1964.8Z" transform="translate(254.24 -62.37)"/><circle class="cls-6" cx="1163.29" cy="1451.76" r="2.2"/><path class="cls-6" d="M579.73,1156.69a2.2,2.2,0,1,1-2.2-2.2A2.2,2.2,0,0,1,579.73,1156.69Z" transform="translate(254.24 -62.37)"/><path class="cls-6" d="M1333.34,751.58a2.2,2.2,0,1,1-2.2-2.19A2.2,2.2,0,0,1,1333.34,751.58Z" transform="translate(254.24 -62.37)"/><path class="cls-6" d="M1249.47,355.73a2.2,2.2,0,1,1-2.2-2.19A2.21,2.21,0,0,1,1249.47,355.73Z" transform="translate(254.24 -62.37)"/><path class="cls-6" d="M538.62,539a2.2,2.2,0,1,1-2.19-2.2A2.19,2.19,0,0,1,538.62,539Z" transform="translate(254.24 -62.37)"/><path class="cls-6" d="M495.92,854.13a2.2,2.2,0,1,1-2.2-2.2A2.19,2.19,0,0,1,495.92,854.13Z" transform="translate(254.24 -62.37)"/><circle class="cls-6" cx="925.72" cy="320.44" r="2.2"/><path class="cls-6" d="M1144.76,888a2.2,2.2,0,1,1-2.2-2.19A2.21,2.21,0,0,1,1144.76,888Z" transform="translate(254.24 -62.37)"/><path class="cls-6" d="M498.12,1505.34a2.2,2.2,0,1,1-2.2-2.2A2.21,2.21,0,0,1,498.12,1505.34Z" transform="translate(254.24 -62.37)"/><path class="cls-6" d="M1089,1904.59a2.2,2.2,0,1,1-2.19-2.2A2.19,2.19,0,0,1,1089,1904.59Z" transform="translate(254.24 -62.37)"/><path class="cls-6" d="M1107.25,867.83a2.2,2.2,0,1,1-2.2-2.2A2.2,2.2,0,0,1,1107.25,867.83Z" transform="translate(254.24 -62.37)"/><path class="cls-6" d="M1374.76,1529.44a2.2,2.2,0,1,1-2.2-2.19A2.2,2.2,0,0,1,1374.76,1529.44Z" transform="translate(254.24 -62.37)"/><path class="cls-6" d="M947.86,1509.73a2.2,2.2,0,1,1-2.2-2.19A2.2,2.2,0,0,1,947.86,1509.73Z" transform="translate(254.24 -62.37)"/><path class="cls-6" d="M1435.15,1087.78a2.2,2.2,0,1,1-2.2-2.2A2.2,2.2,0,0,1,1435.15,1087.78Z" transform="translate(254.24 -62.37)"/><path class="cls-6" d="M1276.18,1764.22a2.2,2.2,0,1,1-2.2-2.2A2.2,2.2,0,0,1,1276.18,1764.22Z" transform="translate(254.24 -62.37)"/><path class="cls-6" d="M1408,1885.37a2.2,2.2,0,1,1-2.2-2.19A2.2,2.2,0,0,1,1408,1885.37Z" transform="translate(254.24 -62.37)"/><path class="cls-6" d="M470.07,1213.47a2.19,2.19,0,1,1-2.75-1.44A2.2,2.2,0,0,1,470.07,1213.47Z" transform="translate(254.24 -62.37)"/><path class="cls-6" d="M1415.06,851.28a2.19,2.19,0,1,1-2.74-1.45A2.2,2.2,0,0,1,1415.06,851.28Z" transform="translate(254.24 -62.37)"/><path class="cls-6" d="M1287.05,411.1a2.19,2.19,0,1,1-2.74-1.45A2.19,2.19,0,0,1,1287.05,411.1Z" transform="translate(254.24 -62.37)"/><path class="cls-6" d="M575.34,1194.86a5,5,0,1,1-5-5A5,5,0,0,1,575.34,1194.86Z" transform="translate(254.24 -62.37)"/><path class="cls-6" d="M1413,570.27a5,5,0,1,1-5-5A5,5,0,0,1,1413,570.27Z" transform="translate(254.24 -62.37)"/><path class="cls-6" d="M1031.35,1926.42a5,5,0,1,1-5-5A5,5,0,0,1,1031.35,1926.42Z" transform="translate(254.24 -62.37)"/><path class="cls-6" d="M1107.81,934.65a5,5,0,1,1-5-5A5,5,0,0,1,1107.81,934.65Z" transform="translate(254.24 -62.37)"/><path class="cls-6" d="M1341.06,1744.41a5,5,0,1,1-5-5A5,5,0,0,1,1341.06,1744.41Z" transform="translate(254.24 -62.37)"/><path class="cls-6" d="M1246.49,1668.73a5,5,0,1,1-5-5A5,5,0,0,1,1246.49,1668.73Z" transform="translate(254.24 -62.37)"/><path class="cls-6" d="M1396.9,982.1a5,5,0,1,1-5-5A5,5,0,0,1,1396.9,982.1Z" transform="translate(254.24 -62.37)"/><path class="cls-6" d="M911.81,1189.9a5,5,0,1,1-5-5A5,5,0,0,1,911.81,1189.9Z" transform="translate(254.24 -62.37)"/><path class="cls-6" d="M916.77,835a5,5,0,1,1-5-5A5,5,0,0,1,916.77,835Z" transform="translate(254.24 -62.37)"/><path class="cls-6" d="M1085.14,763.7a5,5,0,1,1-5-5A5,5,0,0,1,1085.14,763.7Z" transform="translate(254.24 -62.37)"/><path class="cls-6" d="M831.49,888a5,5,0,1,1-5-5A5,5,0,0,1,831.49,888Z" transform="translate(254.24 -62.37)"/><path class="cls-6" d="M921.73,1391.62a5,5,0,1,1-5-5A5,5,0,0,1,921.73,1391.62Z" transform="translate(254.24 -62.37)"/><path class="cls-6" d="M493.72,1161.65a5,5,0,1,1-5-5A5,5,0,0,1,493.72,1161.65Z" transform="translate(254.24 -62.37)"/><path class="cls-6" d="M1379.72,377.84a5,5,0,1,1-5-5A5,5,0,0,1,1379.72,377.84Z" transform="translate(254.24 -62.37)"/><path class="cls-6" d="M692.11,427.41a5,5,0,1,1-5-5A5,5,0,0,1,692.11,427.41Z" transform="translate(254.24 -62.37)"/><path class="cls-6" d="M488.76,488.51a5,5,0,1,1-5-5A5,5,0,0,1,488.76,488.51Z" transform="translate(254.24 -62.37)"/><path class="cls-6" d="M570.38,862.87a5,5,0,1,1-5-5A5,5,0,0,1,570.38,862.87Z" transform="translate(254.24 -62.37)"/><path class="cls-6" d="M836.45,477.52a5,5,0,1,1-5-5A5,5,0,0,1,836.45,477.52Z" transform="translate(254.24 -62.37)"/><path class="cls-6" d="M1058.73,870a5,5,0,1,1-5-5A5,5,0,0,1,1058.73,870Z" transform="translate(254.24 -62.37)"/><path class="cls-6" d="M650.22,1129.74h0A21.26,21.26,0,0,0,629,1108.48h0a21.26,21.26,0,0,0,21.26-21.26h0a21.26,21.26,0,0,0,21.26,21.26h0A21.26,21.26,0,0,0,650.22,1129.74Z" transform="translate(254.24 -62.37)"/><path class="cls-6" d="M1032.5,702.66h0a21.26,21.26,0,0,0-21.26-21.26h0a21.26,21.26,0,0,0,21.26-21.26h0a21.26,21.26,0,0,0,21.27,21.26h0A21.26,21.26,0,0,0,1032.5,702.66Z" transform="translate(254.24 -62.37)"/><path class="cls-6" d="M933.08,1744.41h0a21.26,21.26,0,0,0-21.27-21.26h0a21.26,21.26,0,0,0,21.27-21.26h0a21.26,21.26,0,0,0,21.26,21.26h0A21.26,21.26,0,0,0,933.08,1744.41Z" transform="translate(254.24 -62.37)"/><path class="cls-6" d="M1341.06,488.51h0a21.26,21.26,0,0,0-21.26-21.26h0A21.26,21.26,0,0,0,1341.06,446h0a21.26,21.26,0,0,0,21.26,21.27h0A21.26,21.26,0,0,0,1341.06,488.51Z" transform="translate(254.24 -62.37)"/><path class="cls-7" d="M-162.8,1471.32C-151.32,1342.94-90.13,1225,4,1149.87c49.48-39.5,110.57-68,175.56-61.87,68.89,6.46,133.43,51,183.8,105.33s89.43,118.61,132.48,179.35c140.38,198.09,327.13,361.29,536,468.48,84.57,43.39,173.78,78,264.71,88.44,217.79,25,428.11-102.28,519-301.62,46.9-102.88,64-225.47,33.86-342.29-17.84-69.13-56-139.32-117.43-172.14-92.74-49.53-198.79,5-261.23,81.63s-100.63,174.7-169.67,244.68c-123.46,125.13-329.1,135.36-500,60.62s-310.4-221.29-420.76-381c-72.71-105.22-136.49-221.41-156.38-346-8.71-54.53-8.32-111.81,14.1-158.73S308.83,534,360.54,542c65.92,10.21,114.1,82.32,128.43,151.48s4.6,138.75,7.59,208.39c5,116.73,48.48,237,128.25,325.36s196.9,141.19,305.07,127.22,201.71-99.3,219.7-212.36c9.52-59.81-1.24-123.61-21.87-183.23-37.3-107.77-107.51-205.37-196.88-273.67C858.66,630,775.76,594.3,701.86,542s-142-129.45-152.13-219.68c-9.18-82.17,35.18-160.75,102.34-195.6S805,98.44,877.22,136c32,16.66,62.51,39.81,82.64,71.27,42.65,66.64,29.51,150.21,26.85,226.82-3.59,103.11,19.87,217.47,94.18,292.6,74.78,75.6,195.84,108.47,231.2,209.23,10.39,29.59,11.25,61,18.48,91.38s23.67,62.36,51.45,74.17c41.44,17.6,81.48-18.93,99.74-58.56,57.8-125.48,5-288.37-77.82-411.74s-193.62-225-274.31-349.78c-45.94-71.05-86-153.48-157.62-193.64C895.78,45,807.27,63.7,730.32,89.81,327.39,226.52-84.62,402-254.24,808.21" transform="translate(254.24 -62.37)"/></g><g class="cls-5"><path class="cls-3" d="M389.18,1787.33c.56-38.17,3-75.75,6.42-112.67,8.32-1.41,13.95,59.11,21,52.92,9.32-8.18,21-49.84,7.09-100.36-4.68-17-11.34-29.41-17.47-39.94,1.59-10.36,3.28-20.67,5.34-30.84s3.67-20.3,5.64-30.35c6,10.55,11.84,23.45,20.05,15.13,12.19-12.37,11.95-80,24.15-165.79,6-18.7,18.57-62.74,25-80.7,34.79-95.66,63.68-151.73,106.35-223.07q16.53-28,33.25-53.42-14.24-11.16-28.79-22.26l-2.58,3.28c-12.22,15.8-23.68,33-36.19,50.41-48.21,70.65-132.16,127.19-172.4,225.18-10,24.51-19.11,50-28.65,75.84-2.21,6.9-4.46,13.93-6.7,20.9C299,1444.7,280.29,1557.7,280.1,1592.25c-.38,65.92,29.4,23.87,32.3,95.46.78,19.2-1.47,34.07-5.07,46.49,25.23,14.47,48.95,28.56,72.67,46.8A107.83,107.83,0,0,0,389.18,1787.33Z" transform="translate(254.24 -62.37)"/></g><rect class="cls-8" x="510.56" y="1042.43" width="40" height="189.47" transform="translate(-435.83 783.8) rotate(-51.58)"/><path class="cls-9" d="M885.63,919.78,637,1212.56l-204.22-162L661.32,741.86c41.66-56,102.33-97.58,176.29-119.06,3.72-1.2,7.75-2.16,11.63-3.23L965,589.52l-2.91,119.56-.5,12.06C957.35,797.92,930.85,866.58,885.63,919.78Z" transform="translate(254.24 -62.37)"/><path class="cls-6" d="M961.59,721.14a769.83,769.83,0,0,1-64.52-46,767.19,767.19,0,0,1-59.46-52.35c3.72-1.2,7.75-2.16,11.63-3.23L965,589.52l-2.91,119.56Z" transform="translate(254.24 -62.37)"/><path class="cls-3" d="M820.62,838a73.28,73.28,0,1,1-93.07-45.51A73.31,73.31,0,0,1,820.62,838Z" transform="translate(254.24 -62.37)"/><path class="cls-6" d="M775,931A73.22,73.22,0,1,0,682,885.53,73.31,73.31,0,0,0,775,931ZM843.9,830a97.9,97.9,0,1,1-124.29-60.87A98,98,0,0,1,843.9,830Z" transform="translate(254.24 -62.37)"/><path class="cls-10" d="M806.73,821.63A68.5,68.5,0,0,0,777,798.32l-2.06-.8a68.44,68.44,0,0,0-28.08-4l1.12,17.07a51.33,51.33,0,0,1,20.8,2.94l2.07.8a51.36,51.36,0,0,1,22.07,17.37Z" transform="translate(254.24 -62.37)"/><path class="cls-10" d="M703.49,910.74c.65.64,1.32,1.26,2,1.87l1.66,1.46a68.45,68.45,0,0,0,37.06,15.77l1.35-12.93a55.46,55.46,0,0,1-29.86-12.64L714,902.81l-1.46-1.37Z" transform="translate(254.24 -62.37)"/><path class="cls-6" d="M468.66,1037.27C417.16,1102.2,374.34,1154,355.43,1139s-6.74-91.1,44.76-156S523,888.87,541.93,903.86,520.16,972.35,468.66,1037.27Z" transform="translate(254.24 -62.37)"/><path class="cls-6" d="M641.92,1174.7c-51.5,64.93-92.17,118.42-73.26,133.42s90.23-14.18,141.73-79.11,63.67-141,44.76-156S693.42,1109.78,641.92,1174.7Z" transform="translate(254.24 -62.37)"/><circle class="cls-9" cx="1632.95" cy="907.37" r="327.29"/><circle class="cls-11" cx="1632.95" cy="907.37" r="361.29"/><circle class="cls-12" cx="1188.32" cy="837.77" r="56.33" transform="translate(23.19 460.21) rotate(-22.66)"/><ellipse class="cls-10" cx="1446.09" cy="775.4" rx="52.8" ry="56.15"/><path class="cls-12" d="M1485.93,1123.49a56.33,56.33,0,1,1-72-34A56.34,56.34,0,0,1,1485.93,1123.49Z" transform="translate(254.24 -62.37)"/><ellipse class="cls-10" cx="1436.24" cy="1141.33" rx="52.8" ry="56.15" transform="translate(-46.95 490.11) rotate(-19.75)"/><circle class="cls-12" cx="1852.57" cy="959.53" r="56.33"/><ellipse class="cls-10" cx="1856.11" cy="959.53" rx="52.8" ry="56.15"/><circle class="cls-12" cx="1217.95" cy="950.48" r="26.1" transform="translate(-46.71 1170.51) rotate(-48.5)"/><path class="cls-10" d="M1236.52,932.19a26.06,26.06,0,1,0,.87,35.69A26.08,26.08,0,0,0,1236.52,932.19Z" transform="translate(254.24 -62.37)"/><path class="cls-12" d="M1369.91,1091.77a26.09,26.09,0,1,1-2-36.85A26.09,26.09,0,0,1,1369.91,1091.77Z" transform="translate(254.24 -62.37)"/><path class="cls-10" d="M1369,1056.08a26.06,26.06,0,1,0,.87,35.69A26.07,26.07,0,0,0,1369,1056.08Z" transform="translate(254.24 -62.37)"/><path class="cls-12" d="M1557.91,772.93a26.1,26.1,0,1,1-2-36.85A26.1,26.1,0,0,1,1557.91,772.93Z" transform="translate(254.24 -62.37)"/><path class="cls-10" d="M1557,737.23a26.06,26.06,0,1,0,.88,35.7A26.07,26.07,0,0,0,1557,737.23Z" transform="translate(254.24 -62.37)"/><path class="cls-12" d="M1670.57,911.51a26.1,26.1,0,1,1-2-36.85A26.11,26.11,0,0,1,1670.57,911.51Z" transform="translate(254.24 -62.37)"/><path class="cls-10" d="M1669.7,875.81a26.07,26.07,0,1,0,.87,35.7A26.08,26.08,0,0,0,1669.7,875.81Z" transform="translate(254.24 -62.37)"/><path class="cls-12" d="M1283.83,1166.68a36.22,36.22,0,1,1-2.83-51.14A36.22,36.22,0,0,1,1283.83,1166.68Z" transform="translate(254.24 -62.37)"/><ellipse class="cls-10" cx="1258.54" cy="1144.04" rx="36.1" ry="33.94" transform="translate(-179.03 1256.45) rotate(-48.17)"/><path class="cls-12" d="M1190.89,1162a21.74,21.74,0,1,1-1.7-30.7A21.74,21.74,0,0,1,1190.89,1162Z" transform="translate(254.24 -62.37)"/><path class="cls-10" d="M1190.16,1132.24a21.72,21.72,0,1,0,.73,29.74A21.74,21.74,0,0,0,1190.16,1132.24Z" transform="translate(254.24 -62.37)"/><path class="cls-12" d="M1320.68,834.07a26.1,26.1,0,1,1-21-30.32A26.09,26.09,0,0,1,1320.68,834.07Z" transform="translate(254.24 -62.37)"/><path class="cls-10" d="M1301.24,804.12a26.06,26.06,0,1,0,19.44,30A26.08,26.08,0,0,0,1301.24,804.12Z" transform="translate(254.24 -62.37)"/><path class="cls-12" d="M1378.71,1221.21c-167.93,0-306.24-126.49-325-289.38a329.36,329.36,0,0,0-2.26,37.9c0,180.76,146.53,327.29,327.29,327.29S1706,1150.49,1706,969.73a331.63,331.63,0,0,0-2.25-37.9C1685,1094.72,1546.64,1221.21,1378.71,1221.21Z" transform="translate(254.24 -62.37)"/></g></g></svg>