<svg xmlns="http://www.w3.org/2000/svg" xmlns:xlink="http://www.w3.org/1999/xlink" version="1.1" id="Layer_1" x="0px"
	y="0px" viewBox="0 0 1080 1080" style="enable-background:new 0 0 1080 1080;" xml:space="preserve">
	<style type="text/css">
		.st0 {
			fill: #F7F7F7;
		}

		.st1 {
			fill: #F2F2F2;
		}

		.st2 {
			fill: #FFFFFF;
		}

		.st3 {
			fill: #CCE9FF;
		}

		.st4 {
			fill: #2A94F4;
		}

		.st5 {
			fill: #FFBE55;
		}

		.st6 {
			fill: #0B4870;
		}

		.st7 {
			fill: #F9C8A7;
		}

		.st8 {
			fill: #FCD2B1;
		}

		.st9 {
			fill: #0E538C;
		}

		.st10 {
			fill: #FFE3CA;
		}
	</style>
	<g>
		<path class="st0"
			d="M347.57,516.87c-32.39,14.57-65.44,30.81-88.19,58.09c-7.59,9.1-14.12,20.15-13.46,31.98   c1.23,22.06,26.53,35.2,48.62,35.24c22.1,0.04,43.58-8.24,65.67-8.18c11.4,0.03,25.67,5.55,25.52,16.96   c-0.09,6.82-5.57,12.19-10.65,16.73c-38.99,34.85-77.98,69.7-116.98,104.55c-12.99,11.61-26.39,23.78-33.15,39.84   c-6.76,16.06-4.81,37.22,9.18,47.62c9.21,6.85,21.44,7.75,32.92,7.95c52.13,0.93,103.99-7.09,155.26-16.54   c181.29-33.4,359.21-85,530.25-153.75c31.32-12.59,64.94-28.06,79.85-58.34c17.22-35-1.15-82.83-37.38-97.29   c-21.65-8.65-45.99-6.18-68.91-10.42c-22.92-4.24-47.5-19.95-47.74-43.25c-0.38-38.55,62-53.18,63.79-91.69   c0.95-20.39-17.58-37.62-37.51-42.05c-19.93-4.42-40.63,0.91-60.11,7.03C844.55,361.33,491.25,452.25,347.57,516.87z" />
	</g>
	<g>
		<path class="st1"
			d="M706.82,610.2H112.21c-4.46,0-8.11-3.65-8.11-8.11V489.17c0-4.46,3.65-8.11,8.11-8.11h594.61   c4.46,0,8.11,3.65,8.11,8.11v112.91C714.93,606.54,711.28,610.2,706.82,610.2z" />
		<g>
			<g>
				<path class="st2"
					d="M578.32,589.16h-23.88c-3.38,0-6.12-2.74-6.12-6.12v-43.26h36.13v43.26     C584.45,586.42,581.7,589.16,578.32,589.16z" />
				<path class="st2"
					d="M563.21,500.83l-30.67,40.5c-1.76,2.33-0.1,5.67,2.82,5.67h61.33c2.92,0,4.58-3.34,2.82-5.67l-30.67-40.5     C567.44,498.96,564.63,498.96,563.21,500.83z" />
			</g>
		</g>
		<circle class="st2" cx="167.72" cy="543.48" r="40.5" />
		<path class="st2"
			d="M504.07,529.45H228.39c-2.93,0-5.33-2.4-5.33-5.33l0,0c0-2.93,2.4-5.33,5.33-5.33h275.68   c2.93,0,5.33,2.4,5.33,5.33l0,0C509.4,527.05,507,529.45,504.07,529.45z" />
		<path class="st2"
			d="M504.07,550.35H228.39c-2.93,0-5.33-2.4-5.33-5.33l0,0c0-2.93,2.4-5.33,5.33-5.33h275.68   c2.93,0,5.33,2.4,5.33,5.33l0,0C509.4,547.95,507,550.35,504.07,550.35z" />
		<path class="st2"
			d="M406.41,571.26H228.39c-2.93,0-5.33-2.4-5.33-5.33l0,0c0-2.93,2.4-5.33,5.33-5.33h178.01   c2.93,0,5.33,2.4,5.33,5.33l0,0C411.74,568.86,409.34,571.26,406.41,571.26z" />
	</g>
	<g>
		<path class="st1"
			d="M706.82,759.46H112.21c-4.46,0-8.11-3.65-8.11-8.11V638.43c0-4.46,3.65-8.11,8.11-8.11h594.61   c4.46,0,8.11,3.65,8.11,8.11v112.91C714.93,755.81,711.28,759.46,706.82,759.46z" />
		<g>
			<g>
				<path class="st2"
					d="M578.32,738.43h-23.88c-3.38,0-6.12-2.74-6.12-6.12v-43.26h36.13v43.26     C584.45,735.69,581.7,738.43,578.32,738.43z" />
				<path class="st2"
					d="M563.21,650.09l-30.67,40.5c-1.76,2.33-0.1,5.67,2.82,5.67h61.33c2.92,0,4.58-3.34,2.82-5.67l-30.67-40.5     C567.44,648.22,564.63,648.22,563.21,650.09z" />
			</g>
		</g>
		<circle class="st2" cx="167.72" cy="692.75" r="40.5" />
		<path class="st2"
			d="M504.07,678.71H228.39c-2.93,0-5.33-2.4-5.33-5.33l0,0c0-2.93,2.4-5.33,5.33-5.33h275.68   c2.93,0,5.33,2.4,5.33,5.33l0,0C509.4,676.31,507,678.71,504.07,678.71z" />
		<path class="st2"
			d="M504.07,699.62H228.39c-2.93,0-5.33-2.4-5.33-5.33l0,0c0-2.93,2.4-5.33,5.33-5.33h275.68   c2.93,0,5.33,2.4,5.33,5.33l0,0C509.4,697.22,507,699.62,504.07,699.62z" />
		<path class="st2"
			d="M406.41,720.52H228.39c-2.93,0-5.33-2.4-5.33-5.33v0c0-2.93,2.4-5.33,5.33-5.33h178.01   c2.93,0,5.33,2.4,5.33,5.33v0C411.74,718.12,409.34,720.52,406.41,720.52z" />
	</g>
	<path class="st1"
		d="M1003.94,1027.61H96.06c-6.08,0-11.06-4.98-11.06-11.06v-57.5c0-6.08,4.98-11.06,11.06-11.06h907.89  c6.08,0,11.06,4.98,11.06,11.06v57.5C1015,1022.63,1010.02,1027.61,1003.94,1027.61z" />
	<g>
		<path class="st3"
			d="M963.91,459.7H116.09c-6.6,0-12-5.4-12-12V273.81c0-6.6,5.4-12,12-12h847.81c6.6,0,12,5.4,12,12V447.7   C975.91,454.3,970.51,459.7,963.91,459.7z" />
		<g>
			<g>
				<path class="st4"
					d="M786.15,486.46h-67.99c-9.63,0-17.43-7.8-17.43-17.43V345.86h102.85v123.17     C803.58,478.65,795.78,486.46,786.15,486.46z" />
				<path class="st4"
					d="M743.13,234.97l-87.3,115.3c-5.02,6.63-0.29,16.14,8.03,16.14h174.61c8.32,0,13.05-9.51,8.03-16.14     l-87.3-115.3C755.16,229.65,747.16,229.65,743.13,234.97z" />
			</g>
		</g>
		<circle class="st4" cx="199.51" cy="359.84" r="62.06" />
		<path class="st2"
			d="M597.59,335.97H294.57c-4.49,0-8.17-3.67-8.17-8.17v0c0-4.49,3.67-8.17,8.17-8.17h303.02   c4.49,0,8.17,3.67,8.17,8.17v0C605.75,332.29,602.08,335.97,597.59,335.97z" />
		<path class="st2"
			d="M597.59,368H294.57c-4.49,0-8.17-3.67-8.17-8.17v0c0-4.49,3.67-8.17,8.17-8.17h303.02   c4.49,0,8.17,3.67,8.17,8.17v0C605.75,364.33,602.08,368,597.59,368z" />
		<path class="st2"
			d="M488.66,400.04h-194.1c-4.49,0-8.17-3.67-8.17-8.17l0,0c0-4.49,3.67-8.17,8.17-8.17h194.1   c4.49,0,8.17,3.67,8.17,8.17l0,0C496.83,396.36,493.16,400.04,488.66,400.04z" />
		<polygon class="st5 upvote-star"
			points="990.46,260.33 1023.44,264.17 1000.33,288.01 1006.87,320.56 977.05,305.95 948.11,322.23    952.8,289.36 928.37,266.86 961.08,261.16 974.93,230.98  " />
	</g>
	<g>
		<path class="st6"
			d="M700,958.37c0,0-31.24,14.56-36.64,19.75c-5.4,5.2,16.58,9.99,28.68,2.8c12.1-7.2,11.5-5.92,16.29-7.46   c4.8-1.54,6.55-11.26,4.17-15.09C710.14,954.53,700,958.37,700,958.37z" />
		<path class="st7"
			d="M722.87,862.88c2.16,20.09-10.35,95.48-10.35,95.48s-7.11,0-12.51,0c-0.68-12.34,0.32-50.76,2.37-95.48   c3.31-72.75,9.36-162.16,15.27-182.97c0,0,14.77,9.3,23.01,6.6c28.04,45-10.93,144.92-19.03,171.93   C722.23,859.16,722.64,860.69,722.87,862.88z" />
		<path class="st8"
			d="M834.73,819.14c0,0-43.69,22.43-71.15,30.05c-10.39,2.89-18.45,3.66-20.96,0.28   c-9.12-12.28-12.51-163.74-12.51-163.74s38.21,37.83,42.3,53.62c4.09,15.8-1.87,76.1-13.46,90.32c2.13-1.83,5.47-3.68,9.57-5.53   c20.72-9.29,60.77-17.94,60.77-17.94L834.73,819.14z" />
		<g>
			<path class="st4"
				d="M800.03,797.41c0-13.9-18.68-100.07-32.36-118.66s-34.48-7.18-50.03,1.17    c-15.55,8.35-42.5,73.47-57.46,113.68l2.36-0.46c17.97-13.79,39.59-17.33,60.62-15.46C750.05,780.06,773.1,798.77,800.03,797.41    L800.03,797.41z" />
		</g>
		<g>
			<path class="st9"
				d="M736.75,569.42c-8.19-8.73-8.91-23.49-1.61-32.98c7.3-9.49,21.74-12.59,32.28-6.92    c11.31,6.07,16.3,19.39,20.04,31.66c3.74,12.28,7.85,25.65,18.44,32.91c5.53,3.79,12.31,5.47,17.75,9.38    c10.87,7.8,14.01,23.97,8.19,36.02c-5.82,12.05-19.23,19.51-32.6,19.77c-13.37,0.27-26.39-6.01-35.87-15.45    s-15.64-21.81-19.35-34.66c-3.71-12.85-5.09-26.25-6.05-39.59" />
		</g>
		<path class="st10"
			d="M806.66,478.38l0.09-5c0,0,7.66-10.63-4.02-20.86c-2.14,7.62-4.54,14.61-3.49,17.18   c1.05,2.57,2.74,4.88,2.74,4.88l-0.35,4.65l0.79,1.93l2.45,0.5L806.66,478.38z" />
		<path class="st10"
			d="M698.03,480.71l0.56-4.84c0,0-6.03-11.27,6.59-19.65c1.08,7.65,2.49,14.71,1.15,17.06s-3.29,4.36-3.29,4.36   l-0.26,4.54l-1.01,1.76l-2.44,0.16L698.03,480.71z" />
		<path class="st5"
			d="M756.5,584.34c52.72,3.56,42.48-78.98,44.61-108.29c7.76,1.33,8.12,1.13,8.12,1.13s32,89.06-20.99,124.99   c-10.31,16.75-25.96,49.64-20.56,76.58c-13.49,4.08-50.03,1.17-50.03,1.17s0.57-16.41,0.03-27.5c-0.54-11.09-0.4-15.49-1.42-18.86   c-1.02-3.37-5.34-21.98,0.3-29.09c-6.51-10.8-20.59-59.8-24.51-122.9c9.26-3.02,12.57-3.67,12.57-3.67s10.17,97.05,36.65,106.45   C750.66,592.86,756.5,584.34,756.5,584.34z" />
		<path class="st8"
			d="M740.75,585.71l-0.1,3.12c-0.24,7.68,9.94,10.58,13.79,3.93v0l5.82-23.83l-11.42-4.64L740.75,585.71z" />
		<path class="st10"
			d="M768.89,562.28c-1.68,10.09-11.65,22.1-21.24,20.51c-9.59-1.59-15.15-16.18-13.48-26.27   c1.68-10.09,10.8-16.98,20.39-15.39C764.15,542.72,770.57,552.19,768.89,562.28z" />
		<g>
			<path class="st9"
				d="M742.62,539.2c2.99,12.34,13.9,22.37,26.46,24.3c0.84,0.13,1.77,0.21,2.47-0.28    c1.26-0.87,0.91-2.79,0.43-4.24c-1.79-5.35-3.63-10.79-6.89-15.4c-3.26-4.61-8.19-8.36-13.82-8.83c-3.21-0.27-6.95,0.95-8.09,3.97    L742.62,539.2z" />
		</g>
		<path class="st3"
			d="M712.51,958.37c0,0-7.11,0-12.51,0c-0.68-12.34,0.32-50.76,2.37-95.48h20.49   C725.03,882.98,712.51,958.37,712.51,958.37z" />
		<path class="st6"
			d="M834.73,819.14c0,0,11.96,23.13,20.79,23.89c8.83,0.77-7.1-33.7-10.39-38.18c-2.97-4.04-4.25-7.38-10.4-2.75   c-3.3,2.48-5.42,4.09-5.42,4.09L834.73,819.14z" />
		<path class="st3"
			d="M834.73,819.14c0,0-43.69,22.43-71.15,30.05c-2.91-6.37-4.61-19.52-4.61-19.52l9.57-5.53   c20.72-9.29,60.77-17.94,60.77-17.94L834.73,819.14z" />
	</g>
</svg>